<?xml version="1.0" encoding="UTF-8" standalone="no"?>
<!DOCTYPE svg PUBLIC "-//W3C//DTD SVG 1.1//EN"
 "http://www.w3.org/Graphics/SVG/1.1/DTD/svg11.dtd">
<!-- Generated by graphviz version 2.44.0 (0)
 -->
<!-- Title: contract_workflow Pages: 1 -->
<svg width="351pt" height="260pt"
 viewBox="0.00 0.00 350.50 260.00" xmlns="http://www.w3.org/2000/svg" xmlns:xlink="http://www.w3.org/1999/xlink">
<g id="graph0" class="graph" transform="scale(1 1) rotate(0) translate(4 256)">
<title>contract_workflow</title>
<polygon fill="white" stroke="transparent" points="-4,4 -4,-256 346.5,-256 346.5,4 -4,4"/>
<!-- Define datum -->
<g id="node1" class="node">
<title>Define datum</title>
<text text-anchor="middle" x="55.5" y="-230.3" font-family="Times-Roman" font-size="14.00">Define datum</text>
</g>
<!-- Write validator function -->
<g id="node2" class="node">
<title>Write validator function</title>
<text text-anchor="middle" x="125.5" y="-158.3" font-family="Times-Roman" font-size="14.00">Write validator function</text>
</g>
<!-- Define datum&#45;&gt;Write validator function -->
<g id="edge1" class="edge">
<title>Define datum&#45;&gt;Write validator function</title>
<path fill="none" stroke="black" d="M72.8,-215.7C81.36,-207.14 91.84,-196.66 101.2,-187.3"/>
<polygon fill="black" stroke="black" points="103.8,-189.65 108.4,-180.1 98.85,-184.7 103.8,-189.65"/>
</g>
<!-- Make TypedValidator -->
<g id="node4" class="node">
<title>Make TypedValidator</title>
<text text-anchor="middle" x="125.5" y="-86.3" font-family="Times-Roman" font-size="14.00">Make TypedValidator</text>
</g>
<!-- Write validator function&#45;&gt;Make TypedValidator -->
<g id="edge3" class="edge">
<title>Write validator function&#45;&gt;Make TypedValidator</title>
<path fill="none" stroke="black" d="M125.5,-143.7C125.5,-135.98 125.5,-126.71 125.5,-118.11"/>
<polygon fill="black" stroke="black" points="129,-118.1 125.5,-108.1 122,-118.1 129,-118.1"/>
</g>
<!-- Define redeemer -->
<g id="node3" class="node">
<title>Define redeemer</title>
<text text-anchor="middle" x="195.5" y="-230.3" font-family="Times-Roman" font-size="14.00">Define redeemer</text>
</g>
<!-- Define redeemer&#45;&gt;Write validator function -->
<g id="edge2" class="edge">
<title>Define redeemer&#45;&gt;Write validator function</title>
<path fill="none" stroke="black" d="M178.2,-215.7C169.64,-207.14 159.16,-196.66 149.8,-187.3"/>
<polygon fill="black" stroke="black" points="152.15,-184.7 142.6,-180.1 147.2,-189.65 152.15,-184.7"/>
</g>
<!-- Write contract -->
<g id="node5" class="node">
<title>Write contract</title>
<text text-anchor="middle" x="203.5" y="-14.3" font-family="Times-Roman" font-size="14.00">Write contract</text>
</g>
<!-- Make TypedValidator&#45;&gt;Write contract -->
<g id="edge4" class="edge">
<title>Make TypedValidator&#45;&gt;Write contract</title>
<path fill="none" stroke="black" d="M144.78,-71.7C154.42,-63.05 166.23,-52.45 176.73,-43.03"/>
<polygon fill="black" stroke="black" points="179.34,-45.39 184.44,-36.1 174.66,-40.18 179.34,-45.39"/>
</g>
<!-- Define schema -->
<g id="node6" class="node">
<title>Define schema</title>
<text text-anchor="middle" x="282.5" y="-86.3" font-family="Times-Roman" font-size="14.00">Define schema</text>
</g>
<!-- Define schema&#45;&gt;Write contract -->
<g id="edge5" class="edge">
<title>Define schema&#45;&gt;Write contract</title>
<path fill="none" stroke="black" d="M262.97,-71.7C253.12,-62.97 241.01,-52.24 230.3,-42.75"/>
<polygon fill="black" stroke="black" points="232.61,-40.12 222.8,-36.1 227.97,-45.36 232.61,-40.12"/>
</g>
</g>
</svg>
